<?xml version="1.0" encoding="UTF-8"?>
<!-- Generated by BlackBerry Composer Version:  6.0.0.21  - Apr 18 2011 -->
<svg xmlns="http://www.w3.org/2000/svg"
xmlns:xsi="http://www.w3.org/2001/XMLSchema-instance"
xsi:schemaLocation="http://www.w3.org/2000/svg http://www.plazmic.com/svg/schema/svg.xsd"
xmlns:xlink="http://www.w3.org/1999/xlink"
xmlns:xforms="http://www.w3.org/2002/xforms"
xmlns:pz="http://www.plazmic.com/plazmic_extents"
 id="Untitled_8_23" xml:space="default" width="100%" height="100%" viewBox="-19 -14 39 28" preserveAspectRatio="xMidYMid meet">
<g  id="Layer_1">
	<!-- pz:tag type="layer" -->
<g id="Group_1_copy"
	transform="translate(97.0313 4.30714)">
	<!-- pz:tag type="group" -->
<path id="path_11"
	style="fill:#161413; stroke:none;"
	d="M10 3 C10 2 10 0 6 0 
		5 0 1 0 1 0 
		L0 7 C0 7 3 7 5 7 
		9 7 10 5 10 3 
		Z"
	transform="translate(-114.259 -17.7178)"/>
<path id="path_12"
	style="fill:#161413; stroke:none;"
	d="M10 3 C10 2 10 0 6 0 
		5 0 1 0 1 0 
		L0 7 C0 7 3 7 5 7 
		9 7 10 5 10 3 
		Z"
	transform="translate(-100.763 -17.7178)"/>
<path id="path_13"
	style="fill:#161413; stroke:none;"
	d="M10 3 C10 2 10 0 6 0 
		5 0 1 0 1 0 
		L0 7 C0 7 3 7 5 7 
		9 7 10 5 10 3 
		Z"
	transform="translate(-116.066 -7.8066)"/>
<path id="path_14_16"
	style="fill:#161413; stroke:none;"
	d="M10 3 C10 2 10 0 6 0 
		5 0 1 0 1 0 
		L0 7 C0 7 3 7 5 7 
		9 7 10 5 10 3 
		Z"
	transform="translate(-102.573 -7.8066)"/>
<path id="path_15"
	style="fill:#161413; stroke:none;"
	d="M10 3 C10 2 10 0 6 0 
		5 0 1 0 1 0 
		L0 7 C0 7 3 7 5 7 
		9 7 10 5 10 3 
		Z"
	transform="translate(-88.4561 -11.8281)"/>
<path id="path_16"
	style="fill:#161413; stroke:none;"
	d="M10 3 C10 2 10 0 6 0 
		5 0 1 0 1 0 
		L0 7 C0 7 3 7 5 7 
		9 7 10 5 10 3 
		Z"
	transform="translate(-90.4004 -1.501)"/>
<path id="path_17"
	style="fill:#161413; stroke:none;"
	d="M10 3 C10 2 10 0 6 0 
		5 0 1 0 1 0 
		L0 7 C0 7 3 7 5 7 
		9 7 10 5 10 3 
		Z"
	transform="translate(-104.51 2.5117)"/>
</g>
</g>

<!-- pz:tag output="anim" -->

</svg>
